<mxfile host="app.diagrams.net" agent="Mozilla/5.0 (Windows NT 10.0; WOW64) AppleWebKit/537.36 (KHTML, like Gecko) Chrome/109.0.0.0 Safari/537.36" version="26.1.0">
  <diagram name="第 1 页" id="NLDlICPvxEiBuxYR3bq_">
    <mxGraphModel dx="1323" dy="730" grid="1" gridSize="10" guides="1" tooltips="1" connect="1" arrows="1" fold="1" page="1" pageScale="1" pageWidth="827" pageHeight="1169" math="0" shadow="0">
      <root>
        <mxCell id="0" />
        <mxCell id="1" parent="0" />
        <mxCell id="mf5NSSdfRycmYGb417B4-1" value="开始" style="whiteSpace=wrap;strokeWidth=2;" vertex="1" parent="1">
          <mxGeometry x="200" y="20" width="92" height="54" as="geometry" />
        </mxCell>
        <mxCell id="mf5NSSdfRycmYGb417B4-2" value="计算五个点的通量" style="whiteSpace=wrap;strokeWidth=2;" vertex="1" parent="1">
          <mxGeometry x="152" y="124" width="188" height="54" as="geometry" />
        </mxCell>
        <mxCell id="mf5NSSdfRycmYGb417B4-3" value="计算光滑指示子β值" style="whiteSpace=wrap;strokeWidth=2;" vertex="1" parent="1">
          <mxGeometry x="148" y="228" width="197" height="54" as="geometry" />
        </mxCell>
        <mxCell id="mf5NSSdfRycmYGb417B4-4" value="区域是否平滑?" style="rhombus;strokeWidth=2;whiteSpace=wrap;" vertex="1" parent="1">
          <mxGeometry x="168" y="332" width="156" height="156" as="geometry" />
        </mxCell>
        <mxCell id="mf5NSSdfRycmYGb417B4-5" value="使用WENO最优权重" style="whiteSpace=wrap;strokeWidth=2;" vertex="1" parent="1">
          <mxGeometry x="272" y="791" width="199" height="54" as="geometry" />
        </mxCell>
        <mxCell id="mf5NSSdfRycmYGb417B4-6" value="准备CNN输入" style="whiteSpace=wrap;strokeWidth=2;" vertex="1" parent="1">
          <mxGeometry x="44" y="560" width="154" height="54" as="geometry" />
        </mxCell>
        <mxCell id="mf5NSSdfRycmYGb417B4-7" value="输入CNN模型" style="whiteSpace=wrap;strokeWidth=2;" vertex="1" parent="1">
          <mxGeometry x="44" y="687" width="154" height="54" as="geometry" />
        </mxCell>
        <mxCell id="mf5NSSdfRycmYGb417B4-8" value="CNN预测非线性权重" style="whiteSpace=wrap;strokeWidth=2;" vertex="1" parent="1">
          <mxGeometry x="20" y="791" width="202" height="54" as="geometry" />
        </mxCell>
        <mxCell id="mf5NSSdfRycmYGb417B4-9" value="重构通量" style="whiteSpace=wrap;strokeWidth=2;" vertex="1" parent="1">
          <mxGeometry x="184" y="895" width="124" height="54" as="geometry" />
        </mxCell>
        <mxCell id="mf5NSSdfRycmYGb417B4-10" value="结束" style="whiteSpace=wrap;strokeWidth=2;" vertex="1" parent="1">
          <mxGeometry x="200" y="999" width="92" height="54" as="geometry" />
        </mxCell>
        <mxCell id="mf5NSSdfRycmYGb417B4-11" value="" style="curved=1;startArrow=none;endArrow=block;exitX=0.5;exitY=1;entryX=0.5;entryY=0;rounded=0;" edge="1" parent="1" source="mf5NSSdfRycmYGb417B4-1" target="mf5NSSdfRycmYGb417B4-2">
          <mxGeometry relative="1" as="geometry">
            <Array as="points" />
          </mxGeometry>
        </mxCell>
        <mxCell id="mf5NSSdfRycmYGb417B4-12" value="" style="curved=1;startArrow=none;endArrow=block;exitX=0.5;exitY=1;entryX=0.5;entryY=0;rounded=0;" edge="1" parent="1" source="mf5NSSdfRycmYGb417B4-2" target="mf5NSSdfRycmYGb417B4-3">
          <mxGeometry relative="1" as="geometry">
            <Array as="points" />
          </mxGeometry>
        </mxCell>
        <mxCell id="mf5NSSdfRycmYGb417B4-13" value="" style="curved=1;startArrow=none;endArrow=block;exitX=0.5;exitY=1;entryX=0.5;entryY=0;rounded=0;" edge="1" parent="1" source="mf5NSSdfRycmYGb417B4-3" target="mf5NSSdfRycmYGb417B4-4">
          <mxGeometry relative="1" as="geometry">
            <Array as="points" />
          </mxGeometry>
        </mxCell>
        <mxCell id="mf5NSSdfRycmYGb417B4-14" value="是" style="curved=1;startArrow=none;endArrow=block;exitX=1;exitY=0.95;entryX=0.5;entryY=0;rounded=0;" edge="1" parent="1" source="mf5NSSdfRycmYGb417B4-4" target="mf5NSSdfRycmYGb417B4-5">
          <mxGeometry relative="1" as="geometry">
            <Array as="points">
              <mxPoint x="372" y="524" />
            </Array>
          </mxGeometry>
        </mxCell>
        <mxCell id="mf5NSSdfRycmYGb417B4-15" value="否" style="curved=1;startArrow=none;endArrow=block;exitX=0;exitY=0.95;entryX=0.5;entryY=0.01;rounded=0;" edge="1" parent="1" source="mf5NSSdfRycmYGb417B4-4" target="mf5NSSdfRycmYGb417B4-6">
          <mxGeometry relative="1" as="geometry">
            <Array as="points">
              <mxPoint x="121" y="524" />
            </Array>
          </mxGeometry>
        </mxCell>
        <mxCell id="mf5NSSdfRycmYGb417B4-16" value="" style="curved=1;startArrow=none;endArrow=block;exitX=0.5;exitY=1.01;entryX=0.5;entryY=0;rounded=0;" edge="1" parent="1" source="mf5NSSdfRycmYGb417B4-6" target="mf5NSSdfRycmYGb417B4-7">
          <mxGeometry relative="1" as="geometry">
            <Array as="points" />
          </mxGeometry>
        </mxCell>
        <mxCell id="mf5NSSdfRycmYGb417B4-17" value="" style="curved=1;startArrow=none;endArrow=block;exitX=0.5;exitY=1;entryX=0.5;entryY=0;rounded=0;" edge="1" parent="1" source="mf5NSSdfRycmYGb417B4-7" target="mf5NSSdfRycmYGb417B4-8">
          <mxGeometry relative="1" as="geometry">
            <Array as="points" />
          </mxGeometry>
        </mxCell>
        <mxCell id="mf5NSSdfRycmYGb417B4-18" value="" style="curved=1;startArrow=none;endArrow=block;exitX=0.5;exitY=1;entryX=0;entryY=0.02;rounded=0;" edge="1" parent="1" source="mf5NSSdfRycmYGb417B4-8" target="mf5NSSdfRycmYGb417B4-9">
          <mxGeometry relative="1" as="geometry">
            <Array as="points">
              <mxPoint x="121" y="870" />
            </Array>
          </mxGeometry>
        </mxCell>
        <mxCell id="mf5NSSdfRycmYGb417B4-19" value="" style="curved=1;startArrow=none;endArrow=block;exitX=0.5;exitY=1;entryX=1;entryY=0.02;rounded=0;" edge="1" parent="1" source="mf5NSSdfRycmYGb417B4-5" target="mf5NSSdfRycmYGb417B4-9">
          <mxGeometry relative="1" as="geometry">
            <Array as="points">
              <mxPoint x="372" y="870" />
            </Array>
          </mxGeometry>
        </mxCell>
        <mxCell id="mf5NSSdfRycmYGb417B4-20" value="" style="curved=1;startArrow=none;endArrow=block;exitX=0.5;exitY=1;entryX=0.5;entryY=0;rounded=0;" edge="1" parent="1" source="mf5NSSdfRycmYGb417B4-9" target="mf5NSSdfRycmYGb417B4-10">
          <mxGeometry relative="1" as="geometry">
            <Array as="points" />
          </mxGeometry>
        </mxCell>
      </root>
    </mxGraphModel>
  </diagram>
</mxfile>
